{"title":"Matinee (2012) Malayalam Movie DVDRip XviD - Exclusive","uid":8294908,"size":716557663,"categoryP":"video","categoryS":"movies","magnet":"?xt=urn:btih:f70ebd6a961e343e97835b78cdd050f21e1a16b3&amp;dn=Matinee+%282012%29+Malayalam+Movie+DVDRip+XviD+-+Exclusive&amp;tr=udp%3A%2F%2Ftracker.openbittorrent.com%3A80&amp;tr=udp%3A%2F%2Fopen.demonii.com%3A1337&amp;tr=udp%3A%2F%2Ftracker.coppersurfer.tk%3A6969&amp;tr=udp%3A%2F%2Fexodus.desync.com%3A6969","seeders":1,"leechers":0,"uploader":"tykoon123","files":-1,"time":1364086166,"description":" &lt;a href=&quot;http://imgr.us/images/24f1o2hm14odfoosze1t.jpg&quot; rel=&quot;nofollow&quot; target=&quot;_NEW&quot;&gt;http://imgr.us/images/24f1o2hm14odfoosze1t.jpg&lt;/a&gt;\n\nInfo:\nFormat : MPEG-4\nFormat profile : Base Media / Version 2\nCodec ID : mp42\nFile size : 683 MiB\nDuration : 2h 4mn\nOverall bit rate : 769 Kbps\nEncoded date : UTC 2013-03-23 21:07:02\nTagged date : UTC 2013-03-23 21:57:43\nWriting application : HandBrake 0.9.8 2012071700\n\n\n\nVideo\nID : 1\nFormat : AVC\nFormat/Info : Advanced Video Codec\nFormat profile : &lt;a class=&quot;__cf_email__&quot; href=&quot;/cdn-cgi/l/email-protection&quot; data-cfemail=&quot;da92b3bdb29a96e9f4ea&quot;&gt;[email&amp;#160;protected]&lt;/a&gt;&lt;script cf-hash='f9e31' type=&quot;text/javascript&quot;&gt;\n/* &lt;![CDATA[ */!function(){try{var t=&quot;currentScript&quot;in document?document.currentScript:function(){for(var t=document.getElementsByTagName(&quot;script&quot;),e=t.length;e--;)if(t[e].getAttribute(&quot;cf-hash&quot;))return t[e]}();if(t&amp;&amp;t.previousSibling){var e,r,n,i,c=t.previousSibling,a=c.getAttribute(&quot;data-cfemail&quot;);if(a){for(e=&quot;&quot;,r=parseInt(a.substr(0,2),16),n=2;a.length-n;n+=2)i=parseInt(a.substr(n,2),16)^r,e+=String.fromCharCode(i);e=document.createTextNode(e),c.parentNode.replaceChild(e,c)}}}catch(u){}}();/* ]]&gt; */&lt;/script&gt;\nFormat settings, CABAC : Yes\nFormat settings, ReFrames : 4 frames\nCodec ID : avc1\nCodec ID/Info : Advanced Video Coding\nDuration : 2h 4mn\nBit rate mode : Variable\nBit rate : 380 Kbps\nWidth : 720 pixels\nHeight : 320 pixels\nDisplay aspect ratio : 2.25:1\nFrame rate mode : Variable\nFrame rate : 23.976 fps\nMinimum frame rate : 8.000 fps\nMaximum frame rate : 500.000 fps\nColor space : YUV\nChroma subsampling : 4:2:0\nBit depth : 8 bits\nScan type : Progressive\nBits/(Pixel*Frame) : 0.069\nStream size : 337 MiB (49%)\nWriting library : x264 core 120\nEncoded date : UTC 2013-03-23 21:07:02\nTagged date : UTC 2013-03-23 21:57:43\nMaterial_Duration : 7455363\nMaterial_StreamSize : 353819957\nMaterial_FrameCount : 178744\nColor primaries : BT.601-6 525, BT.1358 525, BT.1700 NTSC, SMPTE 170M\nTransfer characteristics : BT.709-5, BT.1361\nMatrix coefficients : BT.601-6 525, BT.1358 525, BT.1700 NTSC, SMPTE 170M\n\n\n\nAudio #1\nID : 2\nFormat : AAC\nFormat/Info : Advanced Audio Codec\nFormat profile : LC\nCodec ID : 40\nDuration : 2h 4mn\nBit rate mode : Variable\nBit rate : 158 Kbps\nMaximum bit rate : 271 Kbps\nChannel(s) : 2 channels\nChannel positions : Front: L R\nSampling rate : 44.1 KHz\nCompression mode : Lossy\nStream size : 141 MiB (21%)\nEncoded date : UTC 2013-03-23 21:07:02\nTagged date : UTC 2013-03-23 21:57:42\nMaterial_Duration : 7455394\nMaterial_StreamSize : 147447410\n\n\n\nAudio #2\nID : 3\nFormat : AC-3\nFormat/Info : Audio Coding 3\nMode extension : CM (complete main)\nCodec ID : ac-3\nDuration : 2h 4mn\nBit rate mode : Constant\nBit rate : 224 Kbps\nChannel(s) : 2 channels\nChannel positions : Front: L R\nSampling rate : 44.1 KHz\nBit depth : 16 bits\nCompression mode : Lossy\nStream size : 199 MiB (29%)\nEncoded date : UTC 2013-03-23 21:07:02\nTagged date : UTC 2013-03-23 21:57:42\nMaterial_Duration : 7455347\nMaterial_StreamSize : 208749714\n\n\n\nScreens: &lt;a href=&quot;\nhttp://imgr.us/images/pm62xp3eqlgyb8oizio9.jpg&quot; rel=&quot;nofollow&quot; target=&quot;_NEW&quot;&gt;\nhttp://imgr.us/images/pm62xp3eqlgyb8oizio9.jpg&lt;/a&gt;","torrent":{"xt":"urn:btih:f70ebd6a961e343e97835b78cdd050f21e1a16b3","amp;dn":"Matinee+%282012%29+Malayalam+Movie+DVDRip+XviD+-+Exclusive","amp;tr":["udp%3A%2F%2Ftracker.openbittorrent.com%3A80","udp%3A%2F%2Fopen.demonii.com%3A1337","udp%3A%2F%2Ftracker.coppersurfer.tk%3A6969","udp%3A%2F%2Fexodus.desync.com%3A6969"],"infoHash":"f70ebd6a961e343e97835b78cdd050f21e1a16b3","infoHashBuffer":{"type":"Buffer","data":[247,14,189,106,150,30,52,62,151,131,91,120,205,208,80,242,30,26,22,179]},"announce":[],"urlList":[]}}